Coordinates
version=1
nRows=14
nColumns=63
inDegrees=yes

Units are S.I. units (second, meters, Newtons, ...)
If the header above contains a line with 'inDegrees', this indicates whether rotational values are in degrees (yes) or radians (no).

endheader
time	pelvis_tilt	pelvis_list	pelvis_rotation	pelvis_tx	pelvis_ty	pelvis_tz	hip_flexion_r	hip_adduction_r	hip_rotation_r	knee_angle_r	knee_angle_r_beta	ankle_angle_r	subtalar_angle_r	mtp_angle_r	hip_flexion_l	hip_adduction_l	hip_rotation_l	knee_angle_l	knee_angle_l_beta	ankle_angle_l	subtalar_angle_l	mtp_angle_l	L5_S1_Flex_Ext	L5_S1_Lat_Bending	L5_S1_axial_rotation	L4_L5_Flex_Ext	L4_L5_Lat_Bending	L4_L5_axial_rotation	L3_L4_Flex_Ext	L3_L4_Lat_Bending	L3_L4_axial_rotation	L2_L3_Flex_Ext	L2_L3_Lat_Bending	L2_L3_axial_rotation	L1_L2_Flex_Ext	L1_L2_Lat_Bending	L1_L2_axial_rotation	L1_T12_Flex_Ext	L1_T12_Lat_Bending	L1_T12_axial_rotation	Abs_r3	Abs_r2	Abs_r1	Abs_t1	Abs_t2	neck_flexion	neck_bending	neck_rotation	arm_flex_r	arm_add_r	arm_rot_r	elbow_flex_r	pro_sup_r	wrist_flex_r	wrist_dev_r	arm_flex_l	arm_add_l	arm_rot_l	elbow_flex_l	pro_sup_l	wrist_flex_l	wrist_dev_l
1.593220	-8.912534	-0.585553	96.430699	0.112321	0.962565	0.547171	-0.970283	-5.922453	-5.879473	11.625384	0.202901	22.090474	10.379163	0.000000	-1.971513	4.997602	-11.994162	6.873896	0.119972	20.043614	13.724075	0.000000	-0.884553	-1.368226	-3.650588	-1.642702	-1.819741	-3.878749	-1.453231	-3.326705	-3.878749	-1.010955	-3.326705	-3.194264	-0.821395	-2.790087	-2.966103	-0.505433	-2.119382	-2.737941	-6.318270	-15.477647	-20.303474	0.000000	0.000000	4.103312	12.360302	13.217776	54.091361	13.011827	162.829232	0.073224	0.932994	-69.701861	-24.086838	-1.606184	-16.453886	117.500803	2.458573	1.335860	-4.893827	-13.073472
1.610169	-8.938972	-0.650417	96.713152	0.112221	0.962028	0.550142	-0.587459	-5.970355	-6.017517	11.994242	0.209339	22.066337	9.988687	0.000000	-1.642958	5.001612	-11.784805	7.095866	0.123846	19.992772	13.649502	0.000000	-0.929407	-1.406467	-3.889989	-1.726001	-1.870601	-4.133114	-1.526922	-3.419683	-4.133114	-1.062219	-3.419683	-3.403741	-0.863047	-2.868067	-3.160616	-0.531063	-2.178617	-2.917492	-6.638659	-15.910233	-21.634954	0.000000	0.000000	3.603426	13.031223	14.478466	55.191339	13.733208	163.533061	0.070622	0.944160	-69.718461	-24.261158	-1.597011	-16.620261	117.332424	2.410947	1.399923	-5.088443	-13.276085
1.627119	-8.939727	-0.742668	97.064669	0.111984	0.961467	0.553132	-0.202776	-6.002601	-6.259765	12.325324	0.215117	22.040970	9.662167	0.000000	-1.272755	4.989886	-11.451308	7.337469	0.128063	19.947264	13.510562	0.000000	-0.974592	-1.443828	-4.155198	-1.809914	-1.920291	-4.414898	-1.601156	-3.510523	-4.414898	-1.113861	-3.510523	-3.635798	-0.905006	-2.944253	-3.376099	-0.556882	-2.236489	-3.116399	-6.961410	-16.332868	-23.109966	0.000000	0.000000	3.127491	13.776455	15.915211	56.261670	14.498823	164.159641	0.068175	0.953700	-69.738066	-24.374567	-1.599070	-16.786480	117.274047	2.367585	1.472440	-5.303954	-13.434939
1.644068	-8.923400	-0.853115	97.444204	0.111655	0.960907	0.556115	0.176617	-6.027022	-6.574050	12.615862	0.220188	22.019031	9.414941	0.000000	-0.876990	4.971376	-11.041674	7.589557	0.132463	19.904361	13.315508	0.000000	-1.021635	-1.480706	-4.440034	-1.897278	-1.969338	-4.717536	-1.678444	-3.600188	-4.717536	-1.167627	-3.600188	-3.885029	-0.948690	-3.019455	-3.607527	-0.583762	-2.293613	-3.330025	-7.297437	-16.750037	-24.694135	0.000000	0.000000	2.696193	14.522474	17.529895	57.329085	15.318344	164.681628	0.065928	0.954941	-69.754894	-24.427182	-1.628667	-16.946025	117.324464	2.309803	1.552034	-5.513119	-13.530580
1.661017	-8.892460	-0.979982	97.838446	0.111270	0.960367	0.559101	0.552740	-6.047080	-6.961163	12.872511	0.224668	22.003528	9.266477	0.000000	-0.447767	4.936498	-10.748627	7.873272	0.137415	19.887423	13.303059	0.000000	-1.071452	-1.517311	-4.740885	-1.989794	-2.018024	-5.037190	-1.760289	-3.689190	-5.037190	-1.224563	-3.689190	-4.148274	-0.994951	-3.094101	-3.851969	-0.612228	-2.350315	-3.555664	-7.653278	-17.164126	-26.367380	0.000000	0.000000	2.316960	15.221426	19.285637	58.401703	16.194652	165.016448	0.063870	0.947905	-69.768792	-24.431937	-1.687049	-17.102696	117.466887	2.238120	1.641090	-5.718650	-13.522388
1.677966	-8.846645	-1.118448	98.243041	0.110829	0.959857	0.562083	0.917361	-6.063919	-7.424913	13.091223	0.228485	21.992620	9.218020	0.000000	0.006487	4.893384	-10.447188	8.175330	0.142686	19.861592	13.295472	0.000000	-1.124785	-1.553140	-5.054912	-2.088838	-2.065677	-5.370844	-1.847909	-3.776305	-5.370844	-1.285516	-3.776305	-4.423048	-1.044475	-3.167164	-4.107116	-0.642702	-2.405814	-3.791184	-8.034225	-17.569433	-28.113904	0.000000	0.000000	1.983204	15.818009	21.132750	59.477071	17.115581	165.127395	0.061979	0.933175	-69.781648	-24.422893	-1.778638	-17.253279	117.710602	2.146245	1.737892	-5.950466	-13.406141
1.694915	-8.784166	-1.273505	98.647017	0.110355	0.959362	0.565082	1.285661	-6.076822	-7.956398	13.287316	0.231907	21.987083	9.263268	0.000000	0.495047	4.838895	-10.167337	8.498193	0.148321	19.825271	13.307356	0.000000	-1.180097	-1.587978	-5.377338	-2.191558	-2.112011	-5.713422	-1.938781	-3.861010	-5.713422	-1.348733	-3.861010	-4.705171	-1.095838	-3.238205	-4.369087	-0.674307	-2.459778	-4.033003	-8.429314	-17.963528	-29.907141	0.000000	0.000000	1.686053	16.307553	23.030620	60.548212	18.066746	164.982581	0.060205	0.910784	-69.794274	-24.427634	-1.906398	-17.403048	118.026068	2.027494	1.837540	-6.178700	-13.201395
1.711864	-8.711122	-1.421403	99.045206	0.109855	0.958917	0.568080	1.627467	-6.088259	-8.542058	13.451341	0.234770	21.989178	9.396291	0.000000	0.984107	4.785827	-9.864841	8.819380	0.153927	19.749855	13.266288	0.000000	-1.239848	-1.622427	-5.699457	-2.302522	-2.157828	-6.055673	-2.036947	-3.944769	-6.055673	-1.417022	-3.944769	-4.987025	-1.151323	-3.308453	-4.630809	-0.708449	-2.513139	-4.274593	-8.856112	-18.353217	-31.698670	0.000000	0.000000	1.390016	16.632380	24.862254	61.606334	19.012086	164.604966	0.058496	0.883895	-69.807460	-24.449747	-2.049487	-17.559619	118.505611	1.880450	1.926851	-6.424305	-12.882563
1.728814	-8.630483	-1.581478	99.417175	0.109364	0.958455	0.571092	1.983752	-6.103375	-9.146503	13.612848	0.237589	22.010356	9.598457	0.000000	1.500536	4.726927	-9.639412	9.152052	0.159733	19.664715	13.276518	0.000000	-1.298845	-1.656897	-6.015294	-2.412085	-2.203674	-6.391250	-2.133872	-4.028580	-6.391250	-1.484450	-4.028580	-5.263382	-1.206107	-3.378745	-4.887426	-0.742160	-2.566534	-4.511470	-9.277519	-18.743155	-33.455260	0.000000	0.000000	1.086973	16.778550	26.563702	62.643655	19.942428	164.040055	0.056817	0.850935	-69.820831	-24.468163	-2.221758	-17.725287	118.962548	1.713064	2.020905	-6.666713	-12.528349
1.745763	-8.535829	-1.732619	99.736175	0.108942	0.957991	0.574116	2.336812	-6.114144	-9.745211	13.766961	0.240279	22.042498	9.885832	0.000000	2.017738	4.657624	-9.481831	9.480716	0.165470	19.572499	13.304930	0.000000	-1.359140	-1.690988	-6.311055	-2.524059	-2.249014	-6.705496	-2.232931	-4.111467	-6.705496	-1.553361	-4.111467	-5.522173	-1.262097	-3.448262	-5.127733	-0.776612	-2.619340	-4.733292	-9.708200	-19.128790	-35.100197	0.000000	0.000000	0.750237	16.745457	28.024615	63.653830	20.829184	163.216148	0.055228	0.824931	-69.833384	-24.493902	-2.394571	-17.909275	119.447151	1.533407	2.102359	-6.891765	-12.125669
1.762712	-8.442647	-1.890127	100.075663	0.108488	0.957476	0.577188	2.699966	-6.137856	-10.366013	13.942687	0.243346	22.119638	10.170499	0.000000	2.571432	4.592809	-9.338490	9.843772	0.171806	19.495127	13.354513	0.000000	-1.418486	-1.725052	-6.598720	-2.634271	-2.294319	-7.011140	-2.330431	-4.194291	-7.011140	-1.621188	-4.194291	-5.773880	-1.317206	-3.517726	-5.361460	-0.810523	-2.672105	-4.949040	-10.132106	-19.514131	-36.700100	0.000000	0.000000	0.354951	16.545852	29.253774	64.649477	21.675783	162.280360	0.053708	0.791816	-69.845551	-24.510138	-2.576689	-18.123883	119.788201	1.378461	2.157185	-7.117368	-11.722929
1.779661	-8.358992	-2.056283	100.350168	0.108146	0.956872	0.580314	3.106092	-6.174713	-10.912415	14.162804	0.247188	22.244037	10.456621	0.000000	3.151650	4.527344	-9.330889	10.222525	0.178417	19.442434	13.483164	0.000000	-1.474213	-1.760291	-6.856728	-2.737760	-2.341187	-7.285273	-2.421984	-4.279972	-7.285273	-1.684878	-4.279972	-5.999637	-1.368954	-3.589586	-5.571091	-0.842365	-2.726691	-5.142546	-10.530153	-19.912765	-38.135064	0.000000	0.000000	-0.092143	16.194004	30.200276	65.634442	22.473374	161.193916	0.052291	0.759041	-69.856540	-24.522657	-2.754664	-18.370673	119.871679	1.252414	2.193385	-7.322357	-11.353400
1.796610	-8.295098	-2.225856	100.558894	0.107932	0.956166	0.583512	3.557705	-6.236966	-11.374091	14.445458	0.252121	22.423119	10.732611	0.000000	3.753528	4.470931	-9.451939	10.624426	0.185431	19.421862	13.676647	0.000000	-1.527660	-1.796729	-7.080334	-2.837017	-2.389649	-7.522854	-2.509792	-4.368566	-7.522854	-1.745962	-4.368566	-6.195292	-1.418585	-3.663889	-5.752771	-0.872905	-2.783133	-5.310250	-10.911921	-20.324956	-39.378691	0.000000	0.000000	-0.557441	15.711901	30.859017	66.619777	23.215614	159.969868	0.051018	0.726332	-69.865693	-24.529668	-2.904534	-18.654636	119.713075	1.159584	2.205586	-7.506425	-11.007032
1.813559	-8.246067	-2.402726	100.728900	0.107833	0.955338	0.586790	4.059006	-6.322139	-11.771666	14.801185	0.258329	22.659611	10.981238	0.000000	4.383699	4.419744	-9.650732	11.054914	0.192945	19.440882	13.919395	0.000000	-1.579597	-1.833015	-7.271437	-2.933469	-2.437910	-7.725902	-2.595119	-4.456793	-7.725902	-1.805321	-4.456793	-6.362508	-1.466813	-3.737884	-5.908043	-0.902581	-2.839340	-5.453578	-11.282900	-20.735432	-40.441552	0.000000	0.000000	-1.012184	15.191818	31.286303	67.609403	23.894340	158.650414	0.049939	0.693466	-69.872904	-24.531168	-3.009159	-18.973648	119.314436	1.091190	2.191553	-7.670139	-10.692658
